<?xml version="1.0" encoding="UTF-8" standalone="no"?>
<!-- Created with Inkscape (http://www.inkscape.org/) -->

<svg
   width="297mm"
   height="210mm"
   viewBox="0 0 297 210"
   version="1.1"
   id="svg1"
   inkscape:version="1.3.2 (091e20ef0f, 2023-11-25, custom)"
   sodipodi:docname="drawing4.svg"
   xmlns:inkscape="http://www.inkscape.org/namespaces/inkscape"
   xmlns:sodipodi="http://sodipodi.sourceforge.net/DTD/sodipodi-0.dtd"
   xmlns="http://www.w3.org/2000/svg"
   xmlns:svg="http://www.w3.org/2000/svg">
  <sodipodi:namedview
     id="namedview1"
     pagecolor="#ffffff"
     bordercolor="#000000"
     borderopacity="0.25"
     inkscape:showpageshadow="2"
     inkscape:pageopacity="0.0"
     inkscape:pagecheckerboard="0"
     inkscape:deskcolor="#d1d1d1"
     inkscape:document-units="mm"
     inkscape:zoom="1.0004279"
     inkscape:cx="396.33041"
     inkscape:cy="401.32828"
     inkscape:window-width="2560"
     inkscape:window-height="1363"
     inkscape:window-x="0"
     inkscape:window-y="0"
     inkscape:window-maximized="1"
     inkscape:current-layer="layer1" />
  <defs
     id="defs1">
    <inkscape:path-effect
       effect="clone_original"
       linkeditem=""
       id="path-effect2"
       is_visible="true"
       lpeversion="1"
       method="d"
       attributes=""
       css_properties=""
       allow_transforms="true" />
    <inkscape:path-effect
       effect="lattice2"
       gridpoint0="0,0"
       gridpoint1="297.00001,0"
       gridpoint2="0,210.00001"
       gridpoint3="297.00001,210.00001"
       gridpoint4="74.250002,0"
       gridpoint5="222.75001,0"
       gridpoint6="74.250002,210.00001"
       gridpoint7="222.75001,210.00001"
       gridpoint8x9="148.5,0"
       gridpoint10x11="148.5,210.00001"
       gridpoint12="0,52.500003"
       gridpoint13="297.00001,52.500003"
       gridpoint14="0,157.50001"
       gridpoint15="297.00001,157.50001"
       gridpoint16="141.20642,183.28463"
       gridpoint17="261.68704,54.530018"
       gridpoint18="135.88808,120.22728"
       gridpoint19="267.89589,136.50252"
       gridpoint20x21="148.5,52.500003"
       gridpoint22x23="196.06951,150.54836"
       gridpoint24x26="0,105.00001"
       gridpoint25x27="297.00001,105.00001"
       gridpoint28x30="-2.9060701,86.09762"
       gridpoint29x31="152.5993,104.07746"
       gridpoint32x33x34x35="169.44687,81.773119"
       id="path-effect1"
       is_visible="true"
       lpeversion="1"
       horizontal_mirror="false"
       vertical_mirror="false"
       perimetral="false"
       live_update="true" />
  </defs>
  <g
     inkscape:label="Layer 1"
     inkscape:groupmode="layer"
     id="layer1">
    <path
       d="M 0,0 C 0,70.014003 0,210.00001 0,210.00001 M 13.229167,0 c 3.988049,26.30733 2.508465,47.755623 0.781571,70.637237 -1.878243,24.887027 -2.443267,38.169183 -0.929962,61.037903 1.476385,22.3108 3.289958,35.62445 2.807471,53.46633 -0.40317,14.90883 -2.65908,24.85854 -2.65908,24.85854 M 26.458334,0 c 7.44844,32.475992 5.208554,55.134804 2.586625,76.400977 -1.298345,10.530732 -2.320445,18.553157 -2.498692,27.833473 -0.174037,9.06111 0.535784,17.13277 1.755008,26.30647 1.179668,8.87607 2.709992,17.99 3.625271,26.9812 0.943127,9.26476 1.168066,17.5462 0.503803,25.64824 -1.295213,15.79777 -5.972015,26.82965 -5.972015,26.82965 M 39.687501,0 c 4.981014,17.883203 7.158903,33.146661 7.514171,46.713966 0.349935,13.363679 -1.091487,24.089567 -2.453876,33.315499 -1.428672,9.674801 -2.528467,16.490194 -2.524114,24.624915 0.0042,7.92181 1.105685,15.01402 2.785766,23.60043 1.662969,8.49896 3.558235,16.94745 4.600595,26.30614 1.043969,9.37313 1.023815,18.07293 -0.260728,26.6401 -1.269139,8.46444 -3.57824,15.39675 -5.79759,20.69999 -2.163851,5.17061 -3.864224,8.09897 -3.864224,8.09897 M 52.916668,0 c 6.176434,19.684324 9.039019,35.903482 9.78603,49.710063 0.735011,13.584797 -0.631252,23.804568 -1.898409,32.174138 -1.331714,8.795968 -2.326362,14.558312 -2.02704,21.726089 0.291794,6.98751 1.782432,13.32588 3.845958,21.57174 2.026564,8.09816 4.20676,16.64079 5.188906,26.22707 0.987438,9.63794 0.582398,18.82832 -1.414203,27.89664 -1.97675,8.97817 -5.207598,16.3842 -8.24475,22.04476 -2.966839,5.52952 -5.236492,8.64951 -5.236492,8.64951 M 66.145835,0 c 7.156413,20.971704 10.636604,37.761976 11.816004,51.561161 1.158899,13.559322 0.0095,23.193643 -1.02246,30.73844 -1.086522,7.943853 -1.856361,12.816711 -1.196912,19.200449 0.647235,6.26549 2.502258,12.03055 4.887956,20.15072 2.325009,7.9136 4.675334,16.66594 5.499727,26.6011 0.830391,10.00745 -0.03466,19.72231 -2.77149,29.29577 -2.713682,9.49251 -6.846821,17.33599 -10.669974,23.31807 -3.739355,5.85096 -6.542851,9.1343 -6.542851,9.1343 M 79.375002,0 c 7.931001,21.791495 11.9406,38.824583 13.546811,52.427249 1.575603,13.343444 0.718876,22.368165 -0.0039,29.155747 -0.76274,7.162844 -1.241166,11.31309 -0.198655,17.098998 1.041154,5.778386 3.202519,11.072236 5.869672,19.270206 2.568663,7.89523 5.010823,16.94992 5.627483,27.29916 0.62184,10.43599 -0.72218,20.67464 -4.17256,30.72962 -3.424819,9.98047 -8.395043,18.21274 -12.937827,24.47314 -4.446915,6.12829 -7.731021,9.54589 -7.731021,9.54589 M 92.604169,0 c 8.510141,22.189656 12.944361,39.190668 14.933171,52.459603 1.94574,12.981632 1.40775,21.355472 1.00729,27.555028 -0.41921,6.489855 -0.58534,10.085893 0.82732,15.460235 1.32539,5.042364 4.03389,10.993554 6.75456,18.865624 2.76641,8.00441 5.25208,17.42018 5.65151,28.20602 0.40305,10.88371 -1.3914,21.61503 -5.4825,32.1045 -4.06364,10.41907 -9.76737,18.98099 -14.93428,25.47058 -5.060761,6.35626 -8.757071,9.87842 -8.757071,9.87842 M 105.83334,0 c 8.90363,22.211879 13.64566,38.956583 15.94178,51.800787 2.24529,12.559902 1.98791,20.357043 1.88908,26.04688 -0.10341,5.953443 0.0241,9.165187 1.76511,14.310194 1.63547,4.833243 4.63319,10.798359 7.51162,18.874939 2.9253,8.20809 5.43035,18.01029 5.63603,29.22028 0.20763,11.31638 -1.97008,22.48336 -6.59149,33.34095 -4.59231,10.78924 -10.89478,19.61317 -16.56671,26.27831 -5.55774,6.53094 -9.58542,10.12767 -9.58542,10.12767 M 119.0625,0 c 9.12111,21.903612 14.04674,38.215653 16.55135,50.584653 2.43739,12.037055 2.4092,19.530456 2.5473,24.72353 0.14822,5.573989 0.51818,8.572483 2.52335,13.662432 1.88581,4.786996 5.1129,10.894548 8.11539,19.238655 3.05047,8.47745 5.56929,18.66147 5.63017,30.25439 0.0615,11.70542 -2.40242,23.2297 -7.41481,34.37369 -4.98177,11.07591 -11.72409,20.08767 -17.76392,26.87164 -5.92018,6.64958 -10.18883,10.29102 -10.18883,10.29102 M 132.29167,0 c 9.17219,21.310291 14.15419,37.057937 16.75257,48.936339 2.52179,11.528229 2.62954,18.699153 2.91572,23.658829 0.30951,5.364025 0.8464,8.320408 3.03517,13.518023 2.06028,4.892511 5.44992,11.249575 8.54595,19.899829 3.1451,8.78738 5.68505,19.32299 5.66797,31.23464 -0.0172,12.0278 -2.64912,23.81435 -7.89285,35.15162 -5.21166,11.26793 -12.21795,20.38888 -18.47611,27.23328 -6.13586,6.71064 -10.54842,10.36745 -10.54842,10.36745 M 145.52084,0 c 9.06663,20.477846 13.97872,35.56973 16.54814,46.97227 2.49072,11.053251 2.62094,18.000923 2.95601,22.908258 0.36382,5.328245 0.97778,8.412703 3.25822,13.865572 2.14828,5.13687 5.62858,11.830168 8.78891,20.80406 3.21047,9.11628 5.78626,19.95244 5.76836,32.10117 -0.0181,12.26604 -2.68732,24.20786 -7.9911,35.63785 -5.27039,11.35804 -12.35482,20.50714 -18.67489,27.35324 -6.19792,6.7138 -10.65365,10.35759 -10.65365,10.35759 M 158.75,0 c 8.81462,19.453151 13.53491,33.833106 15.95275,44.800164 2.34587,10.640623 2.3772,17.468445 2.65775,22.508925 0.30409,5.463637 0.90065,8.84407 3.17466,14.681198 2.14476,5.505354 5.64069,12.602346 8.83543,21.899503 3.2459,9.44602 5.87397,20.5157 5.9352,32.80793 0.0618,12.40822 -2.51066,24.39109 -7.70017,35.80972 -5.15506,11.34283 -12.12905,20.43879 -18.35327,27.22893 -6.1049,6.65995 -10.50235,10.26364 -10.50235,10.26364 M 171.97917,0 c 8.42675,18.283894 12.84123,31.92605 14.99307,42.519018 2.09245,10.300698 1.91415,17.134819 2.03841,22.479565 0.13394,5.760659 0.6217,9.599023 2.79121,15.928549 2.0502,5.981439 5.48552,13.531424 8.68222,23.136868 3.24878,9.76191 5.94172,20.98701 6.15719,33.32274 0.21744,12.44785 -2.12923,24.35516 -7.03574,35.65871 -4.87146,11.22281 -11.55087,20.18624 -17.5257,26.8651 -5.86065,6.55122 -10.10066,10.08946 -10.10066,10.08946 M 185.20834,0 c 7.91376,17.017885 11.92033,29.923151 13.70777,40.219123 1.74246,10.036923 1.26639,17.022323 1.14342,22.820542 -0.13159,6.204981 0.16503,10.650122 2.13904,17.558793 1.87061,6.546796 5.1698,14.582001 8.33151,24.469402 3.2146,10.05279 5.97547,21.34892 6.40801,33.62723 0.43625,12.38402 -1.56969,24.10153 -6.03864,35.19056 -4.434,11.00232 -10.64644,19.75788 -16.22801,26.27387 -5.47445,6.39093 -9.4631,9.84049 -9.4631,9.84049 M 198.43751,0 c 7.28618,15.702448 10.79933,27.896213 12.14753,37.982056 1.3171,9.853251 0.48484,17.134996 0.0461,23.513847 -0.46624,6.778203 -0.42748,11.95727 1.27388,19.51062 1.77368,7.874381 4.47303,14.9465 7.79109,25.852897 3.13696,10.31111 5.95364,21.59211 6.64618,33.71691 0.69804,12.22126 -0.87518,23.64195 -4.77476,34.42515 -3.86572,10.68957 -9.4579,19.16817 -14.51745,25.47472 -4.96094,6.18366 -8.61253,9.52381 -8.61253,9.52381 M 211.66667,0 c 6.55427,14.384303 9.50994,25.914367 10.375,35.880682 0.84651,9.752532 -0.36291,17.460251 -1.15243,24.523096 -0.83359,7.457164 -1.09519,13.468401 0.27596,21.710244 1.38814,8.343955 3.96463,16.354901 7.07428,27.245708 3.00758,10.53329 5.847,21.71513 6.81515,33.60108 0.97495,11.96964 -0.10543,22.9985 -3.33512,33.3966 -3.19817,10.29662 -8.04342,18.4376 -12.47267,24.49451 -4.34024,5.93518 -7.58017,9.14809 -7.58017,9.14809 M 224.89584,0 c 11.99275,27.447815 8.5329,43.239026 6.1419,59.772688 -1.18771,8.212971 -1.75803,15.120445 -0.74997,24.071404 1.00894,8.958707 3.3219,17.653558 6.19995,28.608738 2.81643,10.72058 5.61864,21.72348 6.84326,33.30291 1.23152,11.64471 0.66332,22.20352 -1.83582,32.15321 -2.47143,9.83935 -6.47723,17.5927 -10.19376,23.36743 -3.63792,5.65259 -6.40556,8.72363 -6.40556,8.72363 M 238.12501,0 c 10.10197,25.006341 6.17624,41.353087 3.19526,59.584946 -1.47325,9.010519 -2.31637,16.839813 -1.67463,26.495356 0.63905,9.61495 2.60718,18.881768 5.1925,29.905418 2.55204,10.88176 5.2236,21.62693 6.64377,32.85942 1.42461,11.26758 1.33825,21.29963 -0.41811,30.75747 -1.73401,9.33751 -4.84967,16.66608 -7.80217,22.13506 -2.8852,5.34431 -5.13662,8.26234 -5.13662,8.26234 M 251.35417,0 c 8.04908,22.843583 3.96961,39.860937 0.66626,59.795781 -1.62533,9.808415 -2.65124,18.542472 -2.34426,28.870881 0.30499,10.26145 1.87241,20.023738 4.08187,31.101748 2.20294,11.04526 4.60749,21.42739 6.11483,32.32143 1.50334,10.86503 1.8102,20.33961 0.75171,29.2861 -1.04288,8.81461 -3.26726,15.69642 -5.44081,20.84632 -2.1189,5.0204 -3.8296,7.77775 -3.8296,7.77775 M 264.58334,0 c 5.85399,21.058191 2.08031,38.789245 -1.12163,60.333335 -1.56932,10.559072 -2.6244,20.133858 -2.58055,31.074287 0.0435,10.859158 1.17239,21.048918 2.90356,32.166278 1.68192,10.80103 3.77164,21.58833 5.1395,31.75362 1.4088,10.4696 1.95375,19.38625 1.4822,27.82999 -0.914,16.36629 -5.82308,26.8425 -5.82308,26.8425 M 277.81251,0 c 3.53663,19.749136 0.69431,38.150163 -1.80501,61.098667 -2.67114,24.526114 -2.98331,41.379123 -0.48209,66.039483 2.53859,25.02871 5.30912,39.02045 5.14256,57.72876 -0.1369,15.37547 -2.85546,25.1331 -2.85546,25.1331 M 291.04167,0 c 1.11731,19.015582 0.0159,37.941441 -0.98058,61.96575 -1.05524,25.441461 -1.25638,43.58059 -0.40379,68.19437 0.75569,21.81635 1.9314,41.73591 2.04033,56.25464 0.10902,14.53067 -0.65596,23.58525 -0.65596,23.58525 M 0,0 C 99.019803,0 297.00001,0 297.00001,0 M 0,13.229167 c 30.010163,9.571357 61.957465,14.552456 97.529981,15.089159 34.376339,0.518656 67.693389,-3.197097 96.917559,-6.662063 32.9719,-3.909317 50.48972,-6.070232 72.70772,-7.44534 18.33804,-1.134972 29.84475,-0.981756 29.84475,-0.981756 M 0,26.458334 c 31.058582,15.660656 65.110675,22.676032 102.1706,22.641429 35.29275,-0.03295 69.39002,-6.531022 96.63149,-11.587867 30.6847,-5.696014 47.94807,-8.551115 68.68836,-10.090483 17.6402,-1.309276 29.50956,-0.963079 29.50956,-0.963079 M 0,39.687501 c 30.141902,18.857488 65.489223,25.726445 103.78442,24.383477 35.62348,-1.249274 71.45915,-9.758948 96.58953,-14.957634 28.75441,-5.948382 46.01169,-8.299332 66.04699,-9.203554 17.60578,-0.794574 30.57907,-0.222289 30.57907,-0.222289 M 0,52.916668 c 28.155766,19.719044 64.360823,24.935329 103.763,21.875533 18.74986,-1.456031 36.94123,-4.661815 53.13677,-7.916121 16.27478,-3.27023 30.75308,-6.576262 43.63997,-9.035932 27.07964,-5.168586 44.42446,-6.102331 64.15605,-5.913907 17.89512,0.170887 32.30422,0.990427 32.30422,0.990427 M 0,66.145835 c 12.395746,9.003551 27.854394,14.622781 46.116884,17.131553 18.160418,2.49475 37.685314,1.729692 57.090196,-0.62016 19.09602,-2.31245 37.94664,-6.154584 54.08964,-9.516596 17.11451,-3.564345 29.89876,-6.292375 43.07805,-8.235691 12.69599,-1.872055 23.10074,-2.571559 33.54028,-2.570637 10.04695,8.87e-4 19.99649,0.677973 29.00116,1.358519 18.20803,1.376109 34.0838,2.453012 34.0838,2.453012 M 0,79.375002 c 11.382109,7.89566 26.447828,12.214962 44.795836,13.428937 18.236038,1.206566 38.249006,-0.739028 58.130804,-3.910518 19.19879,-3.062541 39.22249,-7.46204 55.09317,-10.686957 16.96723,-3.447734 30.09112,-5.767431 42.63328,-6.85301 12.27553,-1.062501 22.28457,-0.761972 32.31746,0.218686 9.21792,0.901001 19.93562,2.592478 28.56497,3.831324 9.89828,1.421015 17.25687,2.321501 24.63514,3.045794 6.67934,0.65568 10.82935,0.925744 10.82935,0.925744 M 0,92.604169 c 10.686694,6.36834 25.562473,9.157691 44.112474,8.999361 18.430651,-0.15731 38.955762,-3.196298 59.328346,-7.041824 18.66234,-3.522701 37.46152,-7.828362 56.12387,-11.351063 17.00614,-3.203972 30.17318,-4.932699 42.28277,-5.14613 11.90454,-0.209818 21.51556,1.091361 31.12743,3.004181 9.48498,1.887566 18.73733,4.251181 27.8843,6.155265 9.63056,2.004752 17.5896,3.270854 24.94009,4.190315 6.87438,0.859905 11.20073,1.189895 11.20073,1.189895 M 0,105.83334 c 10.430611,4.6202 25.38496,5.83754 44.28709,4.39071 18.776974,-1.43725 39.828855,-5.36211 60.69091,-9.66747 21.66494,-4.471054 39.5067,-8.535039 57.12971,-11.468896 17.09848,-2.846535 30.25315,-3.93227 42.02167,-3.337645 11.58585,0.585395 20.81708,2.767856 29.99085,5.463499 9.07965,2.667986 17.97938,5.697733 26.92458,8.078441 9.34108,2.486071 17.41578,4.038581 24.69286,5.127171 6.88679,1.03021 11.26234,1.41419 11.26234,1.41419 M 0,119.0625 c 10.656609,2.83041 25.958944,2.59356 45.348751,0.0714 19.26106,-2.50541 40.809869,-7.01983 62.127009,-11.52782 21.7382,-4.59702 40.64335,-8.603808 58.03024,-11.036541 17.20248,-2.406932 30.35274,-2.877986 41.86305,-1.614499 11.33723,1.244487 20.24214,4.096319 28.98665,7.34989 9.90029,3.68361 15.81906,6.29026 25.74641,9.41212 8.94126,2.81176 16.84312,4.55782 23.89646,5.7672 6.711,1.15069 11.00144,1.57825 11.00144,1.57825 M 0,132.29167 c 11.33002,1.15852 27.184167,-0.2826 47.135298,-3.56967 19.830502,-3.26719 41.750511,-8.01468 63.445582,-12.45014 21.95493,-4.48859 41.34005,-8.15693 58.71655,-10.08623 17.29387,-1.92013 30.48085,-1.86401 41.83798,-0.12799 11.1898,1.71045 19.87497,4.95528 28.25206,8.49223 9.33474,3.94129 15.24738,6.80236 24.50548,10.03071 8.45611,2.9487 15.97392,4.77898 22.655,6.0466 6.37009,1.20861 10.45206,1.66449 10.45206,1.66449 M 0,145.52084 c 12.34151,-0.25586 28.813708,-2.54635 49.293342,-6.22306 20.053506,-3.60021 42.74258,-8.3165 64.355988,-12.34869 22.05512,-4.1146 41.65828,-7.26108 59.0513,-8.6863 17.35329,-1.42196 30.64604,-0.9694 41.99546,1.00625 11.18725,1.94741 19.83184,5.27345 27.9826,8.79497 9.11176,3.93672 14.68203,6.69961 23.45262,9.87185 7.96203,2.8798 14.96728,4.67363 21.17373,5.92681 5.91574,1.19448 9.69497,1.65817 9.69497,1.65817 M 0,158.75 c 26.230761,-2.51146 72.716191,-12.01772 115.74632,-18.88349 21.90525,-3.49514 41.48589,-5.9917 58.86865,-6.94118 17.3628,-0.94839 30.86012,-0.25891 42.40252,1.70819 11.38544,1.94035 20.26129,5.03009 28.43203,8.2382 9.34121,3.66766 14.34868,5.98666 22.93378,8.93628 7.57718,2.60333 14.04873,4.23535 19.75899,5.39465 5.42816,1.10204 8.85772,1.54735 8.85772,1.54735 M 0,171.97917 c 37.754566,-4.79968 77.891682,-12.09303 115.64625,-16.89271 21.37687,-2.67866 40.65864,-4.456 57.97431,-4.99146 17.30438,-0.5351 31.13957,0.21672 43.14413,1.93351 11.85249,1.69504 21.34427,4.25497 29.91247,6.87758 8.54653,2.61599 16.21156,5.23596 23.39003,7.28797 14.29955,4.08761 26.93282,5.78511 26.93282,5.78511 M 0,185.20834 c 27.711112,-3.36458 72.595816,-9.34809 111.8327,-12.70352 20.3293,-1.73851 38.97748,-2.79628 56.14557,-3.01382 17.15887,-0.21742 31.50664,0.42053 44.32324,1.67349 23.25802,2.27371 44.80945,7.34526 58.15184,9.8984 14.91017,2.85313 26.54666,4.14545 26.54666,4.14545 M 0,198.43751 c 28.165394,-2.23512 65.347931,-5.04493 102.4985,-6.58649 38.62715,-1.60283 69.99212,-1.56468 99.19197,-0.26599 26.11782,1.16162 51.57391,3.50324 66.97383,4.77022 16.87184,1.38808 28.33571,2.08226 28.33571,2.08226"
       style="fill:none;stroke:#000000;stroke-width:1.32292px"
       id="path1"
       inkscape:path-effect="#path-effect1;#path-effect2"
       inkscape:original-d="M 0,0 0,210.00001 M 13.229167,0 l 0,210.00001 M 26.458334,0 l 0,210.00001 M 39.687501,0 l 0,210.00001 M 52.916668,0 l 0,210.00001 M 66.145835,0 l 0,210.00001 M 79.375002,0 l 0,210.00001 M 92.604169,0 l 0,210.00001 M 105.83334,0 l 0,210.00001 M 119.0625,0 l 0,210.00001 M 132.29167,0 l 0,210.00001 M 145.52084,0 l 0,210.00001 M 158.75,0 l 0,210.00001 M 171.97917,0 l 0,210.00001 M 185.20834,0 l 0,210.00001 M 198.43751,0 l 0,210.00001 M 211.66667,0 l 0,210.00001 M 224.89584,0 l 0,210.00001 M 238.12501,0 l 0,210.00001 M 251.35417,0 l 0,210.00001 M 264.58334,0 l 0,210.00001 M 277.81251,0 l 0,210.00001 M 291.04167,0 l 0,210.00001 M 0,0 297.00001,0 M 0,13.229167 l 297.00001,0 M 0,26.458334 l 297.00001,0 M 0,39.687501 l 297.00001,0 M 0,52.916668 l 297.00001,0 M 0,66.145835 l 297.00001,0 M 0,79.375002 l 297.00001,0 M 0,92.604169 l 297.00001,0 M 0,105.83334 l 297.00001,0 M 0,119.0625 l 297.00001,0 M 0,132.29167 l 297.00001,0 M 0,145.52084 l 297.00001,0 M 0,158.75 l 297.00001,0 M 0,171.97917 l 297.00001,0 M 0,185.20834 l 297.00001,0 M 0,198.43751 l 297.00001,0" />
  </g>
</svg>
